<svg xmlns="http://www.w3.org/2000/svg" viewBox="0 0 314.63 276.58"><title>Fichier 1</title><g id="Calque_2" data-name="Calque 2"><g id="Calque_1-2" data-name="Calque 1"><path d="M182.89,275.33c0-15.06.17-53.66.17-53.66-13.37,0-45.15-4.93-45.15-4.93,0,15-24.25,21.54-31.24,28.52-1,1,0,30,0,30a9.09,9.09,0,0,1-.13,1.2l52.16-.12,24.26.05A8,8,0,0,1,182.89,275.33Z"/><path d="M145.34,173.19l-.07-.13Z"/><path d="M219,163l3.88-.36a18.62,18.62,0,0,1-3-5.87A35.15,35.15,0,0,1,219,163Z"/><path d="M281.49,139.38l-31.35-48.5c-7.07-10.86-5-10.35-24.91-21.61-4.56-2.58-9.93-5.71-15.65-9.1-14.56-9-29.14-17.94-43.6-27.08a12.09,12.09,0,0,0-14.62,0c-14.46,9.14-29.05,18.09-43.6,27.08-5.72,3.39-11.09,6.52-15.65,9.1C72.22,80.53,74.27,80,67.2,90.88l-31.35,48.5c-5.41,8.51-4.35,8.23-3.63,16.92l2.24,26.42c2.36,30.92,4.87,61.79,7.31,92.49l.56.34.05.51h.74c.56.37.74.5.92.52l52.78-.12a9.23,9.23,0,0,1-.17-1.31c0-15.93-.9-34.34.51-36.22,1.27-1.69,5.76-7.42,5.76-7.42a54.14,54.14,0,0,0-5.53-17.84c-5.71-17.45,0-28.62,0-28.62-10.3,2-9.72,16.31-9.72,16.31-5.44,35.2-20.31,29.48-20.31,29.48,10.58-4,6.29-24.32,6.29-24.32.86-34.62,27.47-27.18,27.47-27.18,7-11,33.48-8.6,33.48-8.6l36.3-.3c5.2-.7,6.57-1.32,17-14.3a39.91,39.91,0,0,0,4.75-7.45c15.47-26.71,36.48-18.75,36.48-18.75l5.31-7-.85,8.59,6.86-7.16-2.56,12a10.58,10.58,0,0,1,1.82,3.77c4.12,17.94,4.29,33.7,3.32,34.55-1.2,1-8,.72-9.17.71-2.76-2.63-5-8-5.13-8.08a14.37,14.37,0,0,1-3.21-2.06c-2.47.3-4.89.55-7.2.74A71.59,71.59,0,0,1,212.72,180a108.63,108.63,0,0,1,1.43,11.16c.5,12.3-4.86,25.74-4.86,25.74,3.43,2,17.53,16.23,17.53,16.23,3.62,3.83-.42,8.57-.42,8.57-5.42,9.29-13.54,20.52-13.54,20.52s-4.7,6-8.1,2.59c-2.66-2.66,1.16-8,1.16-8,1-1.65,5.38-8.2,5.38-8.2,6.59-8.6,5.84-10.36,5.84-10.36-6.87-7.16-21.35-13.9-21.35-13.9-3.19,28.43-4.25,37.62-4.25,37.62,0,7.71,0,13.67,0,13.67s0,.3-.09.76l81.84.19c.18,0,.36-.15.92-.52H275l.05-.51.56-.34c2.44-30.7,4.95-61.57,7.31-92.49l2.24-26.42C285.84,147.61,286.89,147.89,281.49,139.38Z"/><path d="M310.14,140.39l-48.08-72a40.13,40.13,0,0,0-10.95-10.86c-26.66-17-53.57-33.68-80.27-50.67C169,5.44,167,4,164.73,2.56,162,.79,159.67-.08,157.32,0c-2.36-.09-4.67.78-7.42,2.55-2.23,1.45-4.25,2.88-6.11,4.28-26.69,17-53.61,33.63-80.27,50.67A40,40,0,0,0,52.58,68.37l-48.09,72c-6.37,8.86-6.34,14.4,2.55,21.83,18.29-27.88,36.14-55.28,54.26-82.5A35.58,35.58,0,0,1,71.36,69.34c26.36-16.53,53-32.58,79.45-49a13.89,13.89,0,0,1,6.51-2.42,13.82,13.82,0,0,1,6.5,2.42c26.43,16.43,53.1,32.48,79.46,49a35.54,35.54,0,0,1,10.05,10.38c18.13,27.22,36,54.62,54.27,82.5C316.49,154.79,316.52,149.25,310.14,140.39Z"/></g></g></svg>