<svg xmlns="http://www.w3.org/2000/svg" viewBox="0 0 370.61 170.25"><title>Fichier 3</title><g id="Calque_2" data-name="Calque 2"><g id="Calque_1-2" data-name="Calque 1"><path d="M39.31,167.45,0,2.81H34L58.85,115.9,89,2.81h39.53l28.86,115,25.27-115h33.46l-40,164.64H140.83L108,44.36,75.36,167.45Z"/><path d="M338.37,106.91l32.24,10.22q-7.42,27-24.65,40t-43.75,13.08q-32.79,0-53.9-22.4T227.19,86.59q0-41.12,21.23-63.85T304.23,0q30.21,0,49.08,17.86,11.24,10.56,16.85,30.32L337.25,56q-2.92-12.81-12.18-20.21t-22.52-7.42q-18.32,0-29.71,13.14T261.45,84.12q0,31.22,11.23,44.47t29.2,13.25a33.3,33.3,0,0,0,22.79-8.42Q334.23,125,338.37,106.91Z"/></g></g></svg>